<?xml version="1.0" encoding="UTF-8"?>
<svg xmlns="http://www.w3.org/2000/svg" xmlns:xlink="http://www.w3.org/1999/xlink" width="30px" height="30px" viewBox="0 0 30 30" version="1.1">
<g id="surface1">
<path style=" stroke:none;fill-rule:nonzero;fill:rgb(0%,0%,0%);fill-opacity:1;" d="M 2.8125 3.484375 L 2.8125 26.511719 C 2.8125 26.613281 2.875 26.707031 2.96875 26.746094 C 3.0625 26.785156 3.171875 26.765625 3.246094 26.691406 L 15.234375 15 L 3.246094 3.304688 C 3.171875 3.234375 3.0625 3.214844 2.96875 3.253906 C 2.875 3.292969 2.8125 3.382812 2.8125 3.484375 Z M 2.8125 3.484375 "/>
<path style=" stroke:none;fill-rule:nonzero;fill:rgb(0%,0%,0%);fill-opacity:1;" d="M 20.261719 10.195312 L 5.226562 1.914062 L 5.21875 1.90625 C 4.960938 1.765625 4.714844 2.117188 4.925781 2.320312 L 16.710938 13.589844 Z M 20.261719 10.195312 "/>
<path style=" stroke:none;fill-rule:nonzero;fill:rgb(0%,0%,0%);fill-opacity:1;" d="M 4.925781 27.679688 C 4.714844 27.882812 4.960938 28.234375 5.21875 28.09375 L 5.230469 28.085938 L 20.261719 19.804688 L 16.710938 16.410156 Z M 4.925781 27.679688 "/>
<path style=" stroke:none;fill-rule:nonzero;fill:rgb(0%,0%,0%);fill-opacity:1;" d="M 26.332031 13.535156 L 22.132812 11.222656 L 18.183594 15 L 22.132812 18.773438 L 26.332031 16.464844 C 27.472656 15.832031 27.472656 14.167969 26.332031 13.535156 Z M 26.332031 13.535156 "/>
</g>
</svg>
