<?xml version="1.0" encoding="UTF-8"?>
<svg xmlns="http://www.w3.org/2000/svg" xmlns:xlink="http://www.w3.org/1999/xlink" width="30px" height="30px" viewBox="0 0 30 36" version="1.1">
<g id="surface1">
<path style=" stroke:none;fill-rule:nonzero;fill:rgb(0%,0%,0%);fill-opacity:1;" d="M 25.054688 19.089844 C 25.105469 24.527344 29.945312 26.335938 30 26.359375 C 29.960938 26.488281 29.226562 28.9375 27.449219 31.46875 C 25.914062 33.660156 24.320312 35.839844 21.808594 35.882812 C 19.34375 35.929688 18.550781 34.457031 15.730469 34.457031 C 12.910156 34.457031 12.027344 35.839844 9.691406 35.929688 C 7.269531 36.019531 5.425781 33.5625 3.875 31.382812 C 0.710938 26.921875 -1.707031 18.777344 1.539062 13.277344 C 3.152344 10.546875 6.035156 8.820312 9.164062 8.773438 C 11.542969 8.730469 13.789062 10.335938 15.246094 10.335938 C 16.699219 10.335938 19.429688 8.40625 22.296875 8.6875 C 23.5 8.738281 26.871094 9.160156 29.035156 12.253906 C 28.863281 12.359375 25.011719 14.542969 25.054688 19.089844 M 20.417969 5.738281 C 21.707031 4.21875 22.570312 2.105469 22.335938 0 C 20.480469 0.0742188 18.238281 1.207031 16.90625 2.722656 C 15.714844 4.066406 14.671875 6.21875 14.953125 8.28125 C 17.019531 8.4375 19.132812 7.257812 20.417969 5.738281 "/>
</g>
</svg>
